<?xml version="1.0" encoding="utf-8"?>
<!-- Generator: Adobe Illustrator 19.2.1, SVG Export Plug-In . SVG Version: 6.00 Build 0)  -->
<svg version="1.1" id="Calque_1" xmlns="http://www.w3.org/2000/svg" xmlns:xlink="http://www.w3.org/1999/xlink" x="0px" y="0px"
	 viewBox="0 0 386.4 72.3" style="enable-background:new 0 0 386.4 72.3;" xml:space="preserve">
<style type="text/css">
	.st0{fill:#179AD7;}
	.st1{fill:#FFFFFF;}
</style>
<g>
	<path class="st0" d="M73.8,36.6V0.2H41.7h-3C19.2,0.1,3.4,15.9,3.4,35.3c0,19.5,15.8,35.3,35.2,35.3c18.8,0,34.2-14.5,35.2-33.4
		V36.6z"/>
	<path class="st1" d="M61.6,18.9c-11.2,3.8-11.8,9.6-11.8,9.6c-0.1,0-2.9-2.2-2.9-2.2c-2.1-1.6-4.1-3.7-4.8-6.1
		c-0.8-3,2.9-6.3,2.9-6.3c-22.2,1.7-24.9,21.2-25.4,23.5s-4.1,4-4.1,4c1.5,3.2,4.7,3.5,4.7,3.5c-2.4,2.3-1.6,2.8-1.6,2.8
		c2.2,0.2,3.9,0.4,5.1,1.2s3.9,1.8,3.9,1.8c0.2,0.1,0.3,0.1,0.5,0.2c-1-0.1-2.4-0.4-4.1-1.1c-0.1,0,2.2,3.6,6.1,4.5
		c0,0-1.8-1.7-0.6-3c4.9,1.5,9.4,0.5,9.4,0.5s-0.6,0.6-3.4,0.7c-3-0.1-3.1,0.2-3.1,0.2s2.8,3.6,8.1,4s8.4-4.1,8.4-4.1
		c-5.2,2.4-8.3-1.2-8.3-1.2c11.7-4.8,12.5-15.7,12.5-15.7c0.2,0.8-0.1,3.9-0.1,3.9c4.7,3.5,8.2,2.3,8.2,2.3
		C55.3,33.1,61.6,18.9,61.6,18.9z M37.1,39.4c-0.6,1.6-2.3,3.2-6,4.4s-5.5-0.3-5.9-0.6c-0.4-0.2-2-1.3-1.8-6
		c0.2-4.8,4.5-8.2,4.5-8.2c1.9-1.9,3.6-2.3,3.6-2.3c-0.4,0.2-1.3,0.7-3,2c-3.5,3.7-4.6,7.6-4,10.6s5.1,3,5.1,3
		c3.7,0.4,5.9-3,6.2-3.7s0.2-2.8-2.6-4.2s-3.8,0-3.7,0.8c0.1,0.8,0.7,0.7,2.6,0.9c1.9,0.2,0.7,1.8,0.7,1.8c-1.2,1.6-1.8,1.6-3.4,1.4
		c-1.6-0.3-2.2-2.6-2.4-4.1c0.6-4,3.2-4.3,5.2-4s4,3.3,4.6,4.6C37.5,36.9,37.7,37.7,37.1,39.4z"/>
</g>
<g>
	<path d="M105.5,9.1h5.9l20.4,47.6h-7.5l-4.8-11.8H96.8l-4.7,11.8h-7.5L105.5,9.1z M117.1,39.4l-8.9-21.9h-0.1l-9,21.9H117.1z"/>
	<path d="M165.7,72.1h-6.1V52.2h-0.1c-1.1,1.7-2.6,3-4.6,3.9c-2,1-4.2,1.4-6.5,1.4c-2.5,0-4.7-0.4-6.7-1.3c-2-0.9-3.7-2-5.1-3.5
		c-1.4-1.5-2.5-3.3-3.3-5.3s-1.1-4.2-1.1-6.6c0-2.3,0.4-4.5,1.1-6.6c0.8-2,1.8-3.8,3.3-5.3c1.4-1.5,3.1-2.7,5.1-3.6s4.2-1.3,6.7-1.3
		c2.2,0,4.2,0.5,6.3,1.4c2,0.9,3.6,2.3,4.8,4h0.1v-4.6h6.1V72.1z M149.1,29.7c-1.6,0-3.1,0.3-4.4,0.8c-1.3,0.6-2.4,1.3-3.3,2.3
		c-0.9,1-1.6,2.1-2.1,3.5s-0.7,2.9-0.7,4.5s0.2,3.1,0.7,4.5s1.2,2.5,2.1,3.5c0.9,1,2,1.7,3.3,2.3s2.8,0.8,4.4,0.8s3.1-0.3,4.4-0.8
		c1.3-0.6,2.4-1.3,3.3-2.3c0.9-1,1.6-2.1,2.1-3.5s0.7-2.9,0.7-4.5s-0.2-3.1-0.7-4.5s-1.2-2.5-2.1-3.5c-0.9-1-2-1.7-3.3-2.3
		C152.2,30,150.7,29.7,149.1,29.7z"/>
	<path d="M199.1,56.8H193v-4.9h-0.1c-0.8,1.7-2.1,3.1-4,4.1c-1.9,1.1-4.1,1.6-6.5,1.6c-1.6,0-3.1-0.2-4.4-0.7
		c-1.4-0.5-2.6-1.2-3.7-2.2c-1.1-1-1.9-2.3-2.5-3.8s-0.9-3.4-0.9-5.5V24.9h6.1v18.8c0,1.5,0.2,2.7,0.6,3.8c0.4,1.1,0.9,1.9,1.6,2.6
		c0.7,0.7,1.4,1.1,2.3,1.4c0.9,0.3,1.8,0.4,2.7,0.4c1.3,0,2.4-0.2,3.5-0.6s2-1,2.8-1.9s1.4-2,1.9-3.3c0.4-1.3,0.7-2.9,0.7-4.8V24.9
		h6.1v31.9H199.1z"/>
	<path d="M204.3,28.8c1.7-1.6,3.7-2.7,5.9-3.5s4.5-1.2,6.7-1.2c2.3,0,4.3,0.3,6,0.9s3.1,1.4,4.1,2.4c1.1,1,1.9,2.1,2.4,3.4
		s0.8,2.6,0.8,4v16.3c0,1.1,0,2.2,0.1,3.1c0,0.9,0.1,1.8,0.2,2.7h-5.4c-0.1-1.6-0.2-3.2-0.2-4.8h-0.1c-1.3,2.1-2.9,3.5-4.8,4.4
		c-1.8,0.9-4,1.3-6.4,1.3c-1.5,0-2.9-0.2-4.2-0.6c-1.3-0.4-2.5-1-3.5-1.8s-1.8-1.8-2.4-3c-0.6-1.2-0.9-2.6-0.9-4.1
		c0-2.1,0.5-3.8,1.4-5.2s2.2-2.5,3.8-3.4s3.5-1.5,5.6-1.9s4.4-0.6,6.8-0.6h4.4v-1.3c0-0.8-0.2-1.6-0.5-2.4c-0.3-0.8-0.8-1.5-1.4-2.2
		c-0.6-0.7-1.4-1.2-2.4-1.5c-0.9-0.4-2.1-0.6-3.4-0.6c-1.2,0-2.2,0.1-3.1,0.3c-0.9,0.2-1.7,0.5-2.4,0.8s-1.4,0.7-2,1.2
		c-0.6,0.4-1.1,0.9-1.7,1.3L204.3,28.8z M221.4,41.5c-1.4,0-2.9,0.1-4.4,0.2c-1.5,0.2-2.9,0.5-4.1,0.9c-1.2,0.4-2.2,1.1-3,1.9
		c-0.8,0.8-1.2,1.8-1.2,3.1c0,1.8,0.6,3.2,1.8,4s2.9,1.2,5,1.2c1.7,0,3.1-0.3,4.2-0.8c1.2-0.6,2.1-1.3,2.8-2.2s1.2-1.9,1.5-3
		s0.5-2.2,0.5-3.3v-2C224.5,41.5,221.4,41.5,221.4,41.5z"/>
	<path d="M238.8,30.1h-6.9v-5.2h6.9v-7.1c0-4.3,0.8-7.4,2.5-9.5c1.6-2.1,4.5-3.1,8.4-3.1c0.7,0,1.4,0,2.1,0.1c0.7,0,1.5,0.2,2.4,0.4
		l-0.7,5.4c-0.6-0.2-1.1-0.4-1.7-0.5c-0.5-0.1-1.1-0.1-1.7-0.1c-1.1,0-2,0.2-2.7,0.5s-1.2,0.8-1.6,1.4c-0.4,0.6-0.6,1.4-0.7,2.3
		c-0.1,0.9-0.2,1.9-0.2,3V25h7.2v5.2h-7.3v26.6h-6.1V30.1H238.8z"/>
	<path d="M256.3,28.8c1.7-1.6,3.7-2.7,5.9-3.5c2.2-0.8,4.5-1.2,6.7-1.2c2.3,0,4.3,0.3,6,0.9s3.1,1.4,4.1,2.4c1.1,1,1.9,2.1,2.4,3.4
		s0.8,2.6,0.8,4v16.3c0,1.1,0,2.2,0.1,3.1c0,0.9,0.1,1.8,0.2,2.7h-5.4c-0.1-1.6-0.2-3.2-0.2-4.8h-0.1c-1.3,2.1-2.9,3.5-4.8,4.4
		c-1.8,0.9-4,1.3-6.4,1.3c-1.5,0-2.9-0.2-4.2-0.6c-1.3-0.4-2.5-1-3.5-1.8s-1.8-1.8-2.4-3s-0.9-2.6-0.9-4.1c0-2.1,0.5-3.8,1.4-5.2
		s2.2-2.5,3.8-3.4s3.5-1.5,5.6-1.9s4.4-0.6,6.8-0.6h4.4v-1.3c0-0.8-0.2-1.6-0.5-2.4c-0.3-0.8-0.8-1.5-1.4-2.2s-1.4-1.2-2.4-1.5
		c-0.9-0.4-2.1-0.6-3.4-0.6c-1.2,0-2.2,0.1-3.1,0.3c-0.9,0.2-1.7,0.5-2.4,0.8c-0.7,0.3-1.4,0.7-1.9,1.2c-0.6,0.4-1.1,0.9-1.7,1.3
		L256.3,28.8z M273.4,41.5c-1.4,0-2.9,0.1-4.4,0.2c-1.5,0.2-2.9,0.5-4.1,0.9s-2.2,1.1-3,1.9c-0.8,0.8-1.2,1.8-1.2,3.1
		c0,1.8,0.6,3.2,1.9,4c1.2,0.8,2.9,1.2,5,1.2c1.7,0,3.1-0.3,4.2-0.8c1.2-0.6,2.1-1.3,2.8-2.2c0.7-0.9,1.2-1.9,1.5-3s0.5-2.2,0.5-3.3
		v-2C276.6,41.5,273.4,41.5,273.4,41.5z"/>
	<path d="M319,56.8h-6.1v-4.6h-0.1c-1.2,1.7-2.8,3-4.8,4c-2,0.9-4.1,1.4-6.3,1.4c-2.5,0-4.7-0.4-6.7-1.3c-2-0.9-3.7-2-5.1-3.6
		c-1.4-1.5-2.5-3.3-3.3-5.3s-1.1-4.2-1.1-6.6c0-2.4,0.4-4.6,1.1-6.6c0.8-2,1.9-3.8,3.3-5.3s3.1-2.7,5.1-3.5c2-0.9,4.2-1.3,6.7-1.3
		c2.3,0,4.4,0.5,6.5,1.4c2,1,3.6,2.3,4.6,3.9h0.1V5.9h6.1L319,56.8L319,56.8z M302.4,51.9c1.6,0,3.1-0.3,4.4-0.8
		c1.3-0.6,2.4-1.3,3.3-2.3s1.6-2.1,2.1-3.5s0.7-2.9,0.7-4.5s-0.2-3.1-0.7-4.5s-1.2-2.5-2.1-3.5c-0.9-1-2-1.7-3.3-2.3
		c-1.3-0.6-2.8-0.8-4.4-0.8s-3.1,0.3-4.4,0.8c-1.3,0.6-2.4,1.3-3.3,2.3c-0.9,1-1.6,2.1-2.1,3.5s-0.7,2.9-0.7,4.5s0.2,3.1,0.7,4.5
		s1.2,2.5,2.1,3.5s2,1.7,3.3,2.3C299.4,51.7,300.8,51.9,302.4,51.9z"/>
	<path d="M324.2,28.8c1.7-1.6,3.7-2.7,5.9-3.5c2.2-0.8,4.5-1.2,6.7-1.2c2.3,0,4.3,0.3,6,0.9s3.1,1.4,4.1,2.4c1.1,1,1.9,2.1,2.4,3.4
		s0.8,2.6,0.8,4v16.3c0,1.1,0,2.2,0.1,3.1c0,0.9,0.1,1.8,0.2,2.7H345c-0.1-1.6-0.2-3.2-0.2-4.8h-0.1c-1.3,2.1-2.9,3.5-4.8,4.4
		c-1.8,0.9-4,1.3-6.4,1.3c-1.5,0-2.9-0.2-4.2-0.6c-1.3-0.4-2.5-1-3.5-1.8s-1.8-1.8-2.4-3s-0.9-2.6-0.9-4.1c0-2.1,0.5-3.8,1.4-5.2
		s2.2-2.5,3.8-3.4s3.5-1.5,5.6-1.9s4.4-0.6,6.8-0.6h4.4v-1.3c0-0.8-0.2-1.6-0.5-2.4c-0.3-0.8-0.8-1.5-1.4-2.2s-1.4-1.2-2.4-1.5
		c-0.9-0.4-2.1-0.6-3.4-0.6c-1.2,0-2.2,0.1-3.1,0.3c-0.9,0.2-1.7,0.5-2.4,0.8c-0.7,0.3-1.4,0.7-1.9,1.2c-0.6,0.4-1.1,0.9-1.7,1.3
		L324.2,28.8z M341.3,41.5c-1.4,0-2.9,0.1-4.4,0.2c-1.5,0.2-2.9,0.5-4.1,0.9s-2.2,1.1-3,1.9c-0.8,0.8-1.2,1.8-1.2,3.1
		c0,1.8,0.6,3.2,1.9,4c1.2,0.8,2.9,1.2,5,1.2c1.7,0,3.1-0.3,4.2-0.8c1.2-0.6,2.1-1.3,2.8-2.2c0.7-0.9,1.2-1.9,1.5-3s0.5-2.2,0.5-3.3
		v-2C344.5,41.5,341.3,41.5,341.3,41.5z"/>
	<path d="M373.3,32.9c-0.7-0.9-1.6-1.6-2.7-2.3c-1.1-0.6-2.3-0.9-3.9-0.9c-1.4,0-2.7,0.3-3.7,0.9c-1.1,0.6-1.6,1.5-1.6,2.7
		c0,0.9,0.3,1.7,0.9,2.3s1.3,1.1,2.2,1.4c0.8,0.4,1.7,0.6,2.7,0.8c0.9,0.2,1.8,0.3,2.4,0.5c1.3,0.3,2.5,0.7,3.7,1.1
		c1.1,0.4,2.1,1,3,1.7c0.8,0.7,1.5,1.6,2,2.6s0.7,2.3,0.7,3.8c0,1.8-0.4,3.3-1.1,4.6c-0.8,1.3-1.7,2.3-3,3.1
		c-1.2,0.8-2.6,1.4-4.1,1.7c-1.5,0.4-3.1,0.5-4.7,0.5c-2.6,0-5-0.4-7-1.2s-3.8-2.3-5.3-4.4l4.6-3.8c1,1,2.1,1.9,3.3,2.6
		c1.2,0.8,2.7,1.1,4.4,1.1c0.8,0,1.5-0.1,2.3-0.2c0.8-0.2,1.5-0.4,2.1-0.7s1.1-0.8,1.5-1.3s0.6-1.1,0.6-1.8c0-0.9-0.3-1.6-0.8-2.2
		c-0.6-0.6-1.2-1-2-1.4c-0.8-0.3-1.6-0.6-2.5-0.8s-1.7-0.4-2.3-0.5c-1.3-0.3-2.5-0.7-3.7-1.1c-1.2-0.4-2.2-0.9-3.1-1.6
		c-0.9-0.7-1.6-1.5-2.2-2.6c-0.5-1-0.8-2.3-0.8-3.8c0-1.7,0.3-3.1,1-4.3s1.6-2.3,2.8-3.1c1.1-0.8,2.4-1.4,3.9-1.8s2.9-0.6,4.4-0.6
		c2.2,0,4.2,0.4,6.2,1.2c2,0.8,3.5,2.2,4.7,4L373.3,32.9z"/>
</g>
</svg>
