<?xml version="1.0" encoding="utf-8"?>
<!-- Generator: Adobe Illustrator 18.1.1, SVG Export Plug-In . SVG Version: 6.00 Build 0)  -->
<svg version="1.1" id="Calque_1" xmlns="http://www.w3.org/2000/svg"  x="0px" y="0px"
	 viewBox="0 0 100 100" enable-background="new 0 0 100 100" xml:space="preserve">
<path fill="#FFFFFF" d="M49.6,1.1C22.8,1.1,1,22.9,1,49.8c0,26.9,21.8,48.6,48.6,48.6c26.9,0,48.6-21.8,48.6-48.6
	C98.3,22.9,76.5,1.1,49.6,1.1z M83.9,78.3c-4.4-1.9-14.9-5.5-21.4-7.4c-0.6-0.2-0.6-0.2-0.6-2.5c0-1.9,0.8-3.8,1.5-5.4
	c0.8-1.8,1.8-4.7,2.2-7.4c1-1.1,2.3-3.4,3.2-7.7c0.8-3.8,0.4-5.2-0.1-6.5c-0.1-0.1-0.1-0.3-0.1-0.4c-0.2-0.9,0.1-5.5,0.7-9.1
	c0.4-2.5-0.1-7.7-3.5-12c-2.1-2.7-6.2-6.1-13.7-6.6l-4.1,0c-7.3,0.5-11.4,3.8-13.6,6.6c-3.4,4.3-3.9,9.6-3.5,12
	c0.7,3.6,0.9,8.2,0.7,9.1c0,0.2-0.1,0.3-0.2,0.4c-0.5,1.3-0.9,2.7-0.1,6.5c0.9,4.3,2.2,6.6,3.2,7.7c0.4,2.7,1.3,5.6,2.2,7.4
	c0.6,1.3,0.9,3,0.9,5.5c0,2.3-0.1,2.3-0.6,2.5c-6.7,2-17.4,5.8-21.4,7.6C9,70.7,5.1,60.7,5.1,49.8c0-24.6,20-44.6,44.6-44.6
	c24.6,0,44.6,20,44.6,44.6C94.2,60.6,90.4,70.5,83.9,78.3z"/>
</svg>
